<svg width="71" height="65" viewBox="0 0 71 65" fill="none" xmlns="http://www.w3.org/2000/svg">
<ellipse cx="35.5" cy="36" rx="35.5" ry="29" fill="#B7B7B7"/>
<ellipse cx="35.5" cy="29" rx="35.5" ry="29" fill="#E5E5E5"/>
<path d="M15 37V21C15 18.7909 16.8345 17 19.0976 17H52.9024C55.1655 17 57 18.7909 57 21V37C57 39.2091 55.1661 41 52.903 41H44.1951C39.5854 41 40.6098 44.5 36 44.5C31.3902 44.5 32.4146 41 27.8049 41H19.097C16.8339 41 15 39.2091 15 37Z" fill="#AFAFAF"/>
<path d="M30.5 13C32.7957 13 34.576 14.5685 35.5102 15.7765C35.7469 16.0825 36.2531 16.0825 36.4898 15.7765C37.424 14.5685 39.2043 13 41.5 13H49.0007C50.6576 13 52 14.3431 52 16V33C52 34.6569 50.6576 36 49.0007 36H42C39.8504 36 37.5403 37.6045 36.3631 38.6578C36.1574 38.842 35.8426 38.842 35.6369 38.6578C34.4597 37.6045 32.1496 36 30 36H22.9993C21.3424 36 20 34.6569 20 33V16C20 14.3431 21.3424 13 22.9993 13H30.5Z" fill="#D9D9D9"/>
<mask id="mask0_9_721" style="mask-type:alpha" maskUnits="userSpaceOnUse" x="20" y="13" width="32" height="26">
<path d="M30.5 13C32.7957 13 34.576 14.5685 35.5102 15.7765C35.7469 16.0825 36.2531 16.0825 36.4898 15.7765C37.424 14.5685 39.2043 13 41.5 13H49.0007C50.6576 13 52 14.3431 52 16V33C52 34.6569 50.6576 36 49.0007 36H42C39.8504 36 37.5403 37.6045 36.3631 38.6578C36.1574 38.842 35.8426 38.842 35.6369 38.6578C34.4597 37.6045 32.1496 36 30 36H22.9993C21.3424 36 20 34.6569 20 33V16C20 14.3431 21.3424 13 22.9993 13H30.5Z" fill="#D9D9D9"/>
</mask>
<g mask="url(#mask0_9_721)">
<rect x="34.5" y="14" width="3" height="26" fill="#B7B7B7"/>
</g>
</svg>
