<svg width="32" height="30" viewBox="0 0 32 30" fill="none" xmlns="http://www.w3.org/2000/svg">
<path d="M13.2665 2.04527C14.33 -0.306678 17.67 -0.306672 18.7335 2.04527L20.9554 6.95903C21.4018 7.94622 22.3458 8.61603 23.425 8.71136L28.7515 9.18185C31.4147 9.41709 32.4631 12.7555 30.4126 14.4711L26.6082 17.6541C25.7372 18.3828 25.3524 19.5408 25.6139 20.6459L26.7621 25.4978C27.3649 28.045 24.6444 30.0885 22.3659 28.8L17.4767 26.0351C16.5604 25.5169 15.4396 25.5169 14.5233 26.0351L9.63405 28.8C7.35556 30.0885 4.63514 28.045 5.23794 25.4978L6.38614 20.6459C6.64765 19.5408 6.26279 18.3828 5.39183 17.6541L1.58741 14.4711C-0.463145 12.7555 0.585288 9.41709 3.2485 9.18185L8.57501 8.71136C9.65422 8.61603 10.5982 7.94622 11.0446 6.95903L13.2665 2.04527Z" fill="#AA572A"/>
</svg>
