<svg width="71" height="65" fill="none" xmlns="http://www.w3.org/2000/svg">
    <ellipse cx="35.5" cy="36" rx="35.5" ry="29" fill="#E6A000" />
    <ellipse cx="35.5" cy="29" rx="35.5" ry="29" fill="#FFC800" />
    <mask id="prefix__a" style="mask-type:alpha" maskUnits="userSpaceOnUse" x="7" y="5" width="58" height="48">
        <ellipse cx="36" cy="29" rx="29" ry="24" fill="#D9D9D9" />
    </mask>
    <g mask="url(#prefix__a)" fill="#FFE700">
        <path d="M45 3L9 41.5-8.5 21 16-2l29 5z" />
        <path d="M59 3L16 50l14.5 9 38-41L59 3z" />
    </g>
    <path
        d="M33.267 15.045c1.063-2.352 4.403-2.352 5.466 0l2.222 4.914a3 3 0 002.47 1.752l5.327.47c2.663.236 3.711 3.575 1.66 5.29l-3.804 3.183a3 3 0 00-.994 2.992l1.148 4.852c.603 2.547-2.118 4.59-4.396 3.302l-4.89-2.765a3 3 0 00-2.953 0L29.634 41.8c-2.278 1.289-4.999-.755-4.396-3.302l1.148-4.852a3 3 0 00-.994-2.992l-3.805-3.183c-2.05-1.715-1.002-5.054 1.662-5.29l5.326-.47a3 3 0 002.47-1.752l2.221-4.914z"
        fill="#AA572A" />
</svg>